# xmcd
#
# Track frame offsets: 
#        150
#        19975
#        42318
#        71450
#        91860
#        118273
#        140489
#        160398
#
# Disc length: 2421 seconds
#
# Revision: 2
# Processed by: cddbd v1.5.2PL0 Copyright (c) Steve Scherf et al.
# Submitted via: ExactAudioCopyFreeDBPlugin 1.0
#
DISCID=6c097308
DTITLE=Stanley Turrentine - Betcha
DYEAR=1979
DGENRE=Fusion
TTITLE0=Take Me Home
TTITLE1=Love Is The Answer
TTITLE2=Betcha
TTITLE3=Concentrate On You
TTITLE4=You
TTITLE5=Hamlet (So Peaceful)
TTITLE6=Long Time Gone
TTITLE7=Together Again
EXTD=YEAR: 1979
EXTT0=
EXTT1=
EXTT2=
EXTT3=
EXTT4=
EXTT5=
EXTT6=
EXTT7=
PLAYORDER=
